<?xml version="1.0" encoding="utf-8"?>
<!-- Generator: Adobe Illustrator 18.1.0, SVG Export Plug-In . SVG Version: 6.00 Build 0)  -->
<svg version="1.1" id="Layer_1" xmlns="http://www.w3.org/2000/svg" xmlns:xlink="http://www.w3.org/1999/xlink" x="0px" y="0px"
	 viewBox="0 0 414 413" enable-background="new 0 0 414 413" xml:space="preserve">
<linearGradient id="Subtraction_1_1_" gradientUnits="userSpaceOnUse" x1="367.3105" y1="897.039" x2="368.284" y2="897.0347" gradientTransform="matrix(286.6156 0 0 -280.3685 -105211.0625 251708.0781)">
	<stop  offset="0" style="stop-color:#90DEFF"/>
	<stop  offset="1" style="stop-color:#A25BFE"/>
</linearGradient>
<path id="Subtraction_1" fill="url(#Subtraction_1_1_)" d="M144.8,405.4L144.8,405.4c-10.2-3.3-20.1-7.3-29.6-12
	c-9.4-4.8-18.5-10.2-27.1-16.4c-8.5-6.2-16.6-12.9-24.1-20.3c-7.5-7.4-14.4-15.3-20.7-23.7c-6.3-8.4-11.9-17.4-16.8-26.8
	c-5-9.4-9.1-19.2-12.5-29.4c-7.1-21-10.7-42.9-10.7-64.9c0-13.8,1.4-27.5,4.2-41C10,157.7,14,145,19.2,132.7
	c5.1-12,11.4-23.6,18.7-34.5c7.3-10.8,15.6-20.8,24.8-30s19.2-17.5,30-24.8c10.9-7.3,22.4-13.6,34.5-18.7c12.3-5.2,25-9.1,38-11.8
	c13.4-2.8,27.1-4.2,40.9-4.2c13.7,0,27.4,1.4,40.9,4.2c13,2.6,25.8,6.6,38,11.8c12,5.1,23.6,11.4,34.5,18.7
	c10.8,7.3,20.8,15.6,30,24.8c9.2,9.2,17.5,19.2,24.8,30c7.3,10.9,13.6,22.4,18.7,34.5c5.1,12.3,9.1,25,11.8,38.1
	c2.7,13.5,4.2,27.2,4.2,41c0,22-3.5,44-10.6,64.9c-3.4,10.1-7.6,19.9-12.5,29.4c-4.9,9.3-10.5,18.3-16.8,26.8
	c-6.3,8.4-13.2,16.4-20.7,23.7c-7.7,7.3-15.7,14.2-24.3,20.3c-8.6,6.2-17.7,11.6-27.1,16.4c-9.6,4.8-19.5,8.8-29.6,12
	c3-7.7,4.5-15.7,4.5-24c0-4.5-0.5-8.9-1.4-13.3c-0.9-4.3-2.1-8.4-3.9-12.3c-1.7-3.9-3.7-7.7-6-11.2c-2.4-3.5-5.1-6.8-8.1-9.8
	c-3-3-6.2-5.7-9.8-8.1c-3.5-2.4-7.3-4.4-11.2-6.1c-4-1.7-8.2-3-12.3-3.9c-4.4-0.9-8.8-1.4-13.3-1.4s-8.9,0.5-13.3,1.4
	c-4.2,0.9-8.3,2.1-12.3,3.9c-3.9,1.7-7.7,3.7-11.2,6.1c-3.5,2.4-6.8,5.1-9.8,8.1c-3,3-5.7,6.2-8.1,9.8c-2.4,3.5-4.4,7.3-6,11.2
	c-1.7,4-3,8.2-3.9,12.3c-0.9,4.4-1.4,8.8-1.4,13.3C140.3,389.7,141.8,397.8,144.8,405.4L144.8,405.4z"/>
<circle opacity="0.11" fill="#FFFFFF" enable-background="new    " cx="87.6" cy="251.8" r="75.5"/>
<circle opacity="0.11" fill="#FFFFFF" enable-background="new    " cx="332.6" cy="258.5" r="41.2"/>
<circle opacity="0.11" fill="#FFFFFF" enable-background="new    " cx="280.7" cy="315.5" r="12.7"/>
<circle opacity="0.11" fill="#FFFFFF" enable-background="new    " cx="303.2" cy="346.2" r="6.8"/>
<circle opacity="0.11" fill="#FFFFFF" enable-background="new    " cx="113.9" cy="349.8" r="10"/>
</svg>
